@startuml
'https://plantuml.com/class-diagram

hide methods
skinparam classAttributeIconSize 0
skinparam classBackgroundColor beige
skinparam ArrowColor #222222

package "<<aggregate>> Warehouse" {
    entity Warehouse
    class AreaDeArmazenamento
    class Caixa
    class Compartimento
    class LocalizacaoBase

}

package "<<aggregate>> AGV" {
    entity AGV
    class Tarefa
    class Rota
    class LocalizacaoBase
}

entity Warehouse <<entity>> <<root>> {
-planta
}

class AreaDeArmazenamento{
- corredor
- fila
- prateleira
}

class Compartimento{}

class Caixa{
- tamanho
}

entity AGV <<entity>> <<root>> {
- identificador
- breve descrição
- modelo
- peso máximo que pode transportar
- autonomia
- localização base
- tarefa
}

class Tarefa{
-estado
}

class Rota{}

class LocalizacaoBase {}

AGV -- "1--*" Tarefa : coleta >
AGV -- "1--*" Rota : tem >
AGV -- "1--*" LocalizacaoBase : tem >

Warehouse --> "1--*" AreaDeArmazenamento : contém
Warehouse --> "1--*" LocalizacaoBase : contém

AreaDeArmazenamento --> "1--*" Caixa : contem
AreaDeArmazenamento --> "1--*" Compartimento : contem


@enduml
