@startuml
'https://plantuml.com/class-diagram

skinparam classAttributeIconSize 0
hide empty attributes
left to right direction
skinparam classBackgroundColor beige
skinparam ArrowColor #222222

package "<<aggregate>> ProductOrder"{
    entity ProductOrder
    class Status
}

entity ProductOrder <<entity>> <<root>> {
- numericIdentifier
}

class Status <<(V,#FF8B40) value object>> {}


package "<<aggregate>> Employee" {
    entity Employee
}

entity Employee <<entity>> <<root>> {
    -identifier
}

package "<<aggregate>> User" {
    entity User
    class Role
}

entity User <<entity>> <<root>> {

}

class Role <<(V,#FF8B40) value object>> {}

User ---> "1..*" Role : plays a

Employee --> "1" User : is a

Employee  ----> "0..1" ProductOrder : manage
ProductOrder --> "1" Status : is in


@enduml
