@startuml

skinparam classAttributeIconSize 0
hide empty attributes
skinparam classBackgroundColor beige
skinparam ArrowColor #222222

package "<<aggregate>> Survey" {
    entity Survey
    class AlphanumericCode
    class Description
    class Period
    class Rule
    entity Section
    entity Question
    class SectionTitle
    class MandatoryCondition
    class Type
    entity Answer
}

entity Survey <<entity>> <<root>> {


}

class AlphanumericCode <<(V,#FF8B40) value object>>
class Description <<(V,#FF8B40) value object>>
class Period <<(V,#FF8B40) value object>> {
- initialDate
- finalDate
- activeDays
}
class Rule <<(V,#FF8B40) value object>>
entity Section <<entity>> {
- id
- description
- obligatoriness
- repeatability
}

class SectionTitle <<(V,#FF8B40) value object>>
class MandatoryCondition <<(V,#FF8B40) value object>>
entity Question <<entity>> {
- id
- statement
- instruction
- obligatoriness
}
entity Answer <<entity>> {
}
class Type <<(V,#FF8B40) value object>>

Survey --> "1" AlphanumericCode : identified by
Survey --> "1" Description : characterized by
Survey --> "1" Period : available
Survey --> "1" Rule : determined
Survey --> "1..*" Section : organized
Section ---> "1..*" Question: composed by
Section ---> "1" SectionTitle: characterized by
Section --> "1"  MandatoryCondition: dependent
Question ---> "1" MandatoryCondition: dependent
Question --> "1" Type: associated

Question --> "1" Answer : has
package "<<aggregate>> Notification" {
    entity Notification
}

entity Notification <<entity>> <<root>> {


}

Survey --> "1..*" Notification : emits

package "<<aggregate>> Client" {
    entity Client
}

entity Client <<entity>> <<root>> {

}

Client --> "1..*" Notification : receive
Client --> "1..*" Survey : answers


@enduml